<?xml version="1.0" encoding="UTF-8"?>
<!DOCTYPE svg PUBLIC "-//W3C//DTD SVG 1.1//EN" "http://www.w3.org/Graphics/SVG/1.1/DTD/svg11.dtd">
<!-- Creator: CorelDRAW 2021 (64 Bit) -->
<?xml-stylesheet href="logopolicarpo.css" type="text/css"?>
<svg xmlns="http://www.w3.org/2000/svg" xml:space="preserve" width="101px" height="100px" version="1.1" style="shape-rendering:geometricPrecision; text-rendering:geometricPrecision; image-rendering:optimizeQuality; fill-rule:evenodd; clip-rule:evenodd"
viewBox="0 0 101 100.48"
 xmlns:xlink="http://www.w3.org/1999/xlink"
 xmlns:xodm="http://www.corel.com/coreldraw/odm/2003">
 <defs>
    <clipPath id="id0">
     <rect x="34.48" width="66.52" height="64.77"/>
    </clipPath>
     <clipPath id="id1">
      <path d="M0.97 3.61l94.47 0 -0.97 96.87 -94.47 0 0.97 -96.87z"/>
     </clipPath>
    <clipPath id="id2">
     <rect x="11.76" y="14.13" width="72.67" height="78.55"/>
    </clipPath>
    <clipPath id="id3">
     <rect x="45.26" y="8.04" width="44.91" height="43.16"/>
    </clipPath>
 </defs>
 <g id="Camada_x0020_1">
  <metadata id="CorelCorpID_0Corel-Layer"/>
  <g id="_1937058008912">
   <path id="Pincelada" class="fil0" d="M56.97 22.5c4.1,-0.2 14.45,8.21 16.47,12.01 3.98,7.5 3.25,1.54 6.62,10.54"/>
   <g style="clip-path:url(#id0)">
    <image id="Pincelada_0" x="34.48" y="0" width="66.52" height="64.77" xlink:href="logopolicarpo_Images\logopolicarpo_ImgID1.png"/>
   </g>
   <g>
    <g style="clip-path:url(#id1)">
     <image x="0" y="3.61" width="95.44" height="96.87" xlink:href="logopolicarpo_Images\logopolicarpo_ImgID2.png"/>
    </g>
   </g>
   <g style="clip-path:url(#id2)">
    <image id="_8ab14bb8-5f32-45a8-a74c-3874fdae9dc5.psd" x="11.76" y="14.13" width="72.67" height="78.55" xlink:href="logopolicarpo_Images\logopolicarpo_ImgID3.png"/>
   </g>
   <path id="Pincelada_1" class="fil0" d="M56.73 19.41c4.09,-0.2 14.45,8.21 16.46,12 3.98,7.5 3.25,1.54 6.63,10.54"/>
   <g style="clip-path:url(#id3)">
    <image id="Pincelada_2" x="45.26" y="8.04" width="44.92" height="43.16" xlink:href="logopolicarpo_Images\logopolicarpo_ImgID4.png"/>
   </g>
  </g>
 </g>
</svg>
