<?xml version="1.0" encoding="UTF-8"?>
<!DOCTYPE svg PUBLIC "-//W3C//DTD SVG 1.1//EN" "http://www.w3.org/Graphics/SVG/1.1/DTD/svg11.dtd">
<!-- Creator: CorelDRAW 2021 (64 Bit) -->
<?xml-stylesheet href="titlelogoverasegodeiro.css" type="text/css"?>
<svg xmlns="http://www.w3.org/2000/svg" xml:space="preserve" width="1395px" height="171px" version="1.1" style="shape-rendering:geometricPrecision; text-rendering:geometricPrecision; image-rendering:optimizeQuality; fill-rule:evenodd; clip-rule:evenodd"
viewBox="0 0 1395 171.39"
 xmlns:xlink="http://www.w3.org/1999/xlink"
 xmlns:xodm="http://www.corel.com/coreldraw/odm/2003">
 <g id="Camada_x0020_1">
  <metadata id="CorelCorpID_0Corel-Layer"/>
  <path class="fil0" d="M60.34 1.18l-25.93 70.01 -9.03 0 -25.38 -70.01 9.13 0 19.38 55.51c0.62,1.79 1.09,3.85 1.42,6.21l0.18 0c0.27,-1.95 0.8,-4.05 1.62,-6.3l19.78 -55.42 8.83 0zm47.17 70.01l-37.1 0 0 -70.01 35.55 0 0 7.42 -27.35 0 0 23.3 25.3 0 0 7.36 -25.3 0 0 24.52 28.9 0 0 7.41zm63.67 0l-9.76 0 -11.73 -19.63c-1.07,-1.81 -2.1,-3.36 -3.12,-4.66 -1.02,-1.29 -2.05,-2.34 -3.1,-3.14 -1.07,-0.81 -2.2,-1.41 -3.42,-1.78 -1.21,-0.38 -2.6,-0.57 -4.13,-0.57l-6.73 0 0 29.78 -8.2 0 0 -70.01 20.9 0c3.05,0 5.88,0.39 8.46,1.15 2.59,0.77 4.84,1.92 6.74,3.49 1.91,1.56 3.4,3.51 4.46,5.83 1.09,2.33 1.62,5.05 1.62,8.18 0,2.44 -0.37,4.69 -1.1,6.72 -0.74,2.03 -1.77,3.85 -3.12,5.43 -1.35,1.6 -2.98,2.97 -4.88,4.08 -1.92,1.12 -4.05,2 -6.43,2.62l0 0.18c1.18,0.54 2.2,1.12 3.06,1.79 0.85,0.68 1.69,1.46 2.45,2.38 0.79,0.9 1.57,1.93 2.34,3.1 0.76,1.15 1.61,2.48 2.55,4.02l13.14 21.04zm-41.99 -62.59l0 25.4 11.13 0c2.05,0 3.95,-0.32 5.68,-0.94 1.75,-0.61 3.25,-1.5 4.52,-2.66 1.27,-1.15 2.27,-2.57 2.98,-4.25 0.72,-1.67 1.07,-3.55 1.07,-5.63 0,-3.75 -1.2,-6.67 -3.63,-8.77 -2.42,-2.1 -5.94,-3.15 -10.52,-3.15l-11.23 0zm105.81 62.59l-9.09 0 -7.41 -19.63 -29.7 0 -6.98 19.63 -9.12 0 26.85 -70.01 8.5 0 26.95 70.01zm-19.2 -26.99l-10.99 -29.83c-0.35,-0.99 -0.71,-2.55 -1.06,-4.69l-0.2 0c-0.32,1.99 -0.7,3.54 -1.12,4.69l-10.9 29.83 24.27 0zm26.21 24.16l0 -9.66c1.12,0.98 2.45,1.84 3.98,2.63 1.55,0.78 3.19,1.45 4.89,1.98 1.71,0.53 3.43,0.95 5.15,1.25 1.73,0.28 3.33,0.43 4.78,0.43 5.05,0 8.82,-0.93 11.32,-2.81 2.48,-1.87 3.73,-4.57 3.73,-8.07 0,-1.9 -0.42,-3.53 -1.25,-4.93 -0.83,-1.4 -1.98,-2.68 -3.43,-3.83 -1.47,-1.17 -3.2,-2.27 -5.2,-3.34 -2.02,-1.05 -4.17,-2.16 -6.49,-3.33 -2.43,-1.23 -4.71,-2.5 -6.83,-3.77 -2.12,-1.26 -3.95,-2.66 -5.52,-4.2 -1.56,-1.53 -2.78,-3.26 -3.68,-5.2 -0.9,-1.93 -1.35,-4.2 -1.35,-6.79 0,-3.2 0.7,-5.97 2.1,-8.34 1.4,-2.36 3.25,-4.3 5.52,-5.83 2.28,-1.53 4.88,-2.67 7.8,-3.42 2.9,-0.75 5.88,-1.13 8.9,-1.13 6.9,0 11.93,0.83 15.09,2.5l0 9.23c-4.13,-2.86 -9.44,-4.3 -15.91,-4.3 -1.8,0 -3.58,0.19 -5.38,0.55 -1.79,0.39 -3.39,1 -4.79,1.84 -1.4,0.85 -2.53,1.95 -3.41,3.28 -0.89,1.33 -1.32,2.95 -1.32,4.88 0,1.79 0.33,3.33 1,4.63 0.67,1.31 1.65,2.49 2.95,3.57 1.3,1.07 2.9,2.12 4.77,3.12 1.86,1.01 4.03,2.11 6.46,3.31 2.52,1.25 4.89,2.55 7.14,3.92 2.24,1.37 4.21,2.88 5.9,4.53 1.69,1.67 3.03,3.5 4.03,5.52 1,2.02 1.48,4.33 1.48,6.93 0,3.45 -0.67,6.39 -2.02,8.77 -1.35,2.4 -3.18,4.35 -5.46,5.83 -2.3,1.5 -4.95,2.58 -7.93,3.25 -3,0.67 -6.15,1 -9.49,1 -1.1,0 -2.46,-0.08 -4.1,-0.27 -1.61,-0.18 -3.28,-0.43 -4.98,-0.78 -1.68,-0.33 -3.28,-0.77 -4.8,-1.27 -1.51,-0.5 -2.73,-1.06 -3.65,-1.68zm136.14 -1.95c-7.02,3.97 -14.83,5.95 -23.43,5.95 -9.98,0 -18.07,-3.22 -24.23,-9.67 -6.19,-6.43 -9.27,-14.96 -9.27,-25.58 0,-10.83 3.43,-19.73 10.28,-26.68 6.85,-6.95 15.54,-10.43 26.05,-10.43 7.62,0 14.02,1.25 19.18,3.72l0 9.08c-5.65,-3.58 -12.36,-5.37 -20.11,-5.37 -7.84,0 -14.27,2.7 -19.28,8.1 -5.02,5.4 -7.52,12.4 -7.52,21 0,8.85 2.33,15.82 6.98,20.87 4.65,5.06 10.97,7.59 18.95,7.59 5.47,0 10.2,-1.1 14.2,-3.26l0 -19.63 -15.33 0 0 -7.42 23.53 0 0 31.73zm44.48 5.95c-9.93,0 -17.88,-3.27 -23.85,-9.82 -5.96,-6.53 -8.96,-15.04 -8.96,-25.53 0,-11.26 3.05,-20.24 9.13,-26.94 6.08,-6.7 14.38,-10.07 24.86,-10.07 9.67,0 17.45,3.27 23.35,9.77 5.92,6.51 8.87,15.03 8.87,25.54 0,11.42 -3.04,20.45 -9.09,27.1 -6.05,6.63 -14.14,9.95 -24.31,9.95zm0.58 -64.93c-7.35,0 -13.31,2.65 -17.91,7.95 -4.59,5.32 -6.88,12.28 -6.88,20.9 0,8.63 2.23,15.57 6.71,20.83 4.47,5.25 10.32,7.88 17.5,7.88 7.68,0 13.73,-2.5 18.17,-7.51 4.43,-5.02 6.63,-12.03 6.63,-21.05 0,-9.25 -2.14,-16.38 -6.44,-21.43 -4.3,-5.05 -10.23,-7.57 -17.78,-7.57zm46.58 63.76l0 -70.01 19.33 0c24.67,0 37.02,11.37 37.02,34.13 0,10.8 -3.44,19.49 -10.28,26.05 -6.85,6.55 -16.02,9.83 -27.52,9.83l-18.55 0zm8.2 -62.59l0 55.18 10.45 0c9.18,0 16.32,-2.47 21.43,-7.39 5.12,-4.91 7.67,-11.88 7.67,-20.89 0,-17.94 -9.53,-26.9 -28.62,-26.9l-10.93 0zm99.01 62.59l-37.1 0 0 -70.01 35.55 0 0 7.42 -27.35 0 0 23.3 25.3 0 0 7.36 -25.3 0 0 24.52 28.9 0 0 7.41zm21.68 0l-8.2 0 0 -70.01 8.2 0 0 70.01zm68.61 0l-9.76 0 -11.74 -19.63c-1.06,-1.81 -2.1,-3.36 -3.11,-4.66 -1.02,-1.29 -2.05,-2.34 -3.1,-3.14 -1.07,-0.81 -2.2,-1.41 -3.42,-1.78 -1.22,-0.38 -2.6,-0.57 -4.13,-0.57l-6.73 0 0 29.78 -8.2 0 0 -70.01 20.9 0c3.04,0 5.88,0.39 8.46,1.15 2.58,0.77 4.83,1.92 6.73,3.49 1.92,1.56 3.4,3.51 4.47,5.83 1.08,2.33 1.62,5.05 1.62,8.18 0,2.44 -0.37,4.69 -1.1,6.72 -0.74,2.03 -1.77,3.85 -3.12,5.43 -1.35,1.6 -2.98,2.97 -4.88,4.08 -1.92,1.12 -4.05,2 -6.44,2.62l0 0.18c1.19,0.54 2.2,1.12 3.07,1.79 0.85,0.68 1.68,1.46 2.45,2.38 0.78,0.9 1.57,1.93 2.33,3.1 0.77,1.15 1.62,2.48 2.55,4.02l13.15 21.04zm-41.99 -62.59l0 25.4 11.13 0c2.05,0 3.95,-0.32 5.68,-0.94 1.75,-0.61 3.25,-1.5 4.52,-2.66 1.26,-1.15 2.26,-2.57 2.98,-4.25 0.72,-1.67 1.07,-3.55 1.07,-5.63 0,-3.75 -1.2,-6.67 -3.64,-8.77 -2.41,-2.1 -5.93,-3.15 -10.51,-3.15l-11.23 0zm78.84 63.76c-9.93,0 -17.88,-3.27 -23.85,-9.82 -5.96,-6.53 -8.96,-15.04 -8.96,-25.53 0,-11.26 3.04,-20.24 9.13,-26.94 6.08,-6.7 14.38,-10.07 24.86,-10.07 9.67,0 17.45,3.27 23.35,9.77 5.92,6.51 8.87,15.03 8.87,25.54 0,11.42 -3.04,20.45 -9.09,27.1 -6.05,6.63 -14.15,9.95 -24.31,9.95zm0.58 -64.93c-7.35,0 -13.31,2.65 -17.91,7.95 -4.59,5.32 -6.89,12.28 -6.89,20.9 0,8.63 2.24,15.57 6.72,20.83 4.47,5.25 10.32,7.88 17.5,7.88 7.68,0 13.73,-2.5 18.16,-7.51 4.44,-5.02 6.64,-12.03 6.64,-21.05 0,-9.25 -2.14,-16.38 -6.44,-21.43 -4.3,-5.05 -10.23,-7.57 -17.78,-7.57zm135.34 64.88c-1.85,0 -3.48,-0.25 -4.9,-0.75 -1.42,-0.5 -2.73,-1.22 -3.93,-2.15 -1.2,-0.93 -2.37,-2.05 -3.48,-3.4 -1.14,-1.33 -2.3,-2.83 -3.55,-4.53 -1.3,1.4 -2.8,2.75 -4.52,4.05 -1.7,1.3 -3.6,2.46 -5.68,3.46 -2.09,1.02 -4.37,1.82 -6.84,2.42 -2.48,0.6 -5.16,0.9 -8.06,0.9 -3.5,0 -6.74,-0.43 -9.67,-1.32 -2.91,-0.86 -5.43,-2.16 -7.51,-3.88 -2.09,-1.7 -3.7,-3.82 -4.85,-6.31 -1.17,-2.5 -1.74,-5.39 -1.74,-8.65 0,-4.97 1.42,-9.24 4.25,-12.77 2.82,-3.53 6.84,-6.42 12,-8.67 -0.96,-0.71 -1.95,-1.55 -2.93,-2.51 -0.97,-0.95 -1.83,-2.05 -2.6,-3.27 -0.77,-1.22 -1.38,-2.57 -1.87,-4.05 -0.46,-1.48 -0.7,-3.1 -0.7,-4.86 0,-2.57 0.47,-4.85 1.39,-6.84 0.93,-1.98 2.21,-3.65 3.83,-5.01 1.63,-1.39 3.55,-2.42 5.76,-3.12 2.22,-0.7 4.6,-1.05 7.19,-1.05 2.53,0 4.85,0.35 6.95,1.05 2.1,0.7 3.91,1.72 5.41,3.02 1.52,1.3 2.7,2.86 3.55,4.68 0.85,1.82 1.27,3.85 1.27,6.1 0,3.9 -1.12,7.15 -3.35,9.75 -2.22,2.58 -5.57,4.78 -10.03,6.61 2.25,0.87 4.28,1.95 6.1,3.22 1.83,1.27 3.51,2.68 5.06,4.25 1.54,1.57 2.99,3.23 4.32,5.03 1.33,1.79 2.65,3.64 3.95,5.57 2.65,-3.68 4.63,-7.73 5.97,-12.17 1.33,-4.43 1.99,-9.06 1.99,-13.91 0,-1.23 -0.08,-2.4 -0.21,-3.48 -0.15,-1.11 -0.35,-2.19 -0.62,-3.25l7.77 0c0.25,1.06 0.41,2.08 0.46,3.04 0.05,0.97 0.1,2.1 0.17,3.44 0,2.96 -0.32,5.95 -0.93,8.95 -0.62,2.98 -1.45,5.9 -2.49,8.71 -1.05,2.8 -2.25,5.49 -3.63,8.02 -1.38,2.55 -2.85,4.87 -4.38,6.98 1.15,1.57 2.18,2.94 3.13,4.08 0.95,1.15 1.9,2.12 2.85,2.91 0.97,0.78 1.95,1.36 2.98,1.73 1.02,0.38 2.19,0.56 3.49,0.56 0.98,0 1.98,-0.13 2.98,-0.38 1.02,-0.26 2.05,-0.6 3.13,-0.98l0 7.41c-1.18,0.47 -2.4,0.8 -3.7,1.04 -1.28,0.23 -2.53,0.33 -3.78,0.33zm-40.96 -6.93c2.48,0 4.76,-0.27 6.85,-0.8 2.08,-0.54 4,-1.25 5.75,-2.15 1.76,-0.9 3.35,-1.93 4.78,-3.12 1.43,-1.2 2.73,-2.43 3.92,-3.75 -1.99,-3.08 -3.82,-5.73 -5.5,-7.93 -1.67,-2.18 -3.37,-4.08 -5.09,-5.68 -1.7,-1.6 -3.51,-2.97 -5.46,-4.1 -1.94,-1.14 -4.17,-2.2 -6.7,-3.17 -2.07,0.8 -3.95,1.72 -5.67,2.7 -1.73,1 -3.21,2.17 -4.46,3.52 -1.27,1.35 -2.25,2.91 -2.97,4.71 -0.72,1.79 -1.07,3.89 -1.07,6.3 0,2.22 0.4,4.17 1.22,5.85 0.82,1.7 1.93,3.1 3.35,4.24 1.42,1.11 3.07,1.96 4.95,2.53 1.88,0.56 3.93,0.85 6.1,0.85zm12.21 -49.85c0,-1.63 -0.3,-3.01 -0.9,-4.15 -0.6,-1.13 -1.36,-2.08 -2.3,-2.83 -0.93,-0.75 -1.96,-1.28 -3.1,-1.63 -1.13,-0.34 -2.26,-0.52 -3.36,-0.52 -3.2,0 -5.74,0.87 -7.65,2.6 -1.9,1.72 -2.87,4.07 -2.9,7.02 0,1.35 0.2,2.59 0.62,3.76 0.4,1.17 0.96,2.27 1.69,3.27 0.74,1.02 1.59,1.92 2.57,2.68 0.97,0.78 2.02,1.45 3.12,2.02 4.11,-1.44 7.16,-3.12 9.18,-5.02 2.02,-1.9 3.03,-4.3 3.03,-7.2zm83.01 29.2l0 26.46 -8.2 0 0 -70.01 19.24 0c7.48,0 13.28,1.82 17.41,5.47 4.12,3.65 6.17,8.78 6.17,15.43 0,6.63 -2.29,12.07 -6.87,16.3 -4.56,4.23 -10.75,6.35 -18.51,6.35l-9.24 0zm0 -36.13l0 28.71 8.6 0c5.65,0 9.99,-1.3 12.95,-3.88 2.99,-2.58 4.47,-6.25 4.47,-10.97 0,-9.24 -5.47,-13.86 -16.4,-13.86l-9.62 0zm76.01 63.76c-9.93,0 -17.88,-3.27 -23.84,-9.82 -5.97,-6.53 -8.97,-15.04 -8.97,-25.53 0,-11.26 3.05,-20.24 9.13,-26.94 6.09,-6.7 14.38,-10.07 24.87,-10.07 9.66,0 17.45,3.27 23.35,9.77 5.91,6.51 8.86,15.03 8.86,25.54 0,11.42 -3.03,20.45 -9.08,27.1 -6.05,6.63 -14.15,9.95 -24.32,9.95zm0.59 -64.93c-7.35,0 -13.32,2.65 -17.92,7.95 -4.58,5.32 -6.88,12.28 -6.88,20.9 0,8.63 2.23,15.57 6.72,20.83 4.46,5.25 10.31,7.88 17.49,7.88 7.69,0 13.74,-2.5 18.17,-7.51 4.43,-5.02 6.63,-12.03 6.63,-21.05 0,-9.25 -2.13,-16.38 -6.43,-21.43 -4.3,-5.05 -10.23,-7.57 -17.78,-7.57zm82.89 63.76l-36.31 0 0 -70.01 8.2 0 0 62.6 28.11 0 0 7.41zm18.95 0l-8.2 0 0 -70.01 8.2 0 0 70.01zm66.06 -2.93c-5.17,2.73 -11.61,4.1 -19.33,4.1 -9.97,0 -17.93,-3.2 -23.92,-9.61 -5.99,-6.42 -8.99,-14.84 -8.99,-25.25 0,-11.19 3.38,-20.24 10.11,-27.13 6.73,-6.92 15.28,-10.37 25.63,-10.37 6.63,0 12.13,0.97 16.5,2.88l0 8.75c-5.02,-2.8 -10.55,-4.2 -16.6,-4.2 -8.03,0 -14.55,2.69 -19.55,8.05 -5,5.37 -7.5,12.55 -7.5,21.53 0,8.54 2.34,15.34 7,20.39 4.69,5.06 10.8,7.59 18.4,7.59 7.02,0 13.12,-1.56 18.25,-4.68l0 7.95zm68.46 2.93l-9.08 0 -7.42 -19.63 -29.69 0 -6.99 19.63 -9.11 0 26.84 -70.01 8.5 0 26.95 70.01zm-19.2 -26.99l-10.98 -29.83c-0.35,-0.99 -0.72,-2.55 -1.07,-4.69l-0.2 0c-0.31,1.99 -0.7,3.54 -1.11,4.69l-10.9 29.83 24.26 0zm79.7 26.99l-9.77 0 -11.73 -19.63c-1.07,-1.81 -2.1,-3.36 -3.12,-4.66 -1.02,-1.29 -2.05,-2.34 -3.1,-3.14 -1.06,-0.81 -2.2,-1.41 -3.42,-1.78 -1.21,-0.38 -2.59,-0.57 -4.13,-0.57l-6.73 0 0 29.78 -8.2 0 0 -70.01 20.9 0c3.05,0 5.88,0.39 8.46,1.15 2.59,0.77 4.84,1.92 6.74,3.49 1.91,1.56 3.4,3.51 4.46,5.83 1.09,2.33 1.62,5.05 1.62,8.18 0,2.44 -0.37,4.69 -1.1,6.72 -0.73,2.03 -1.77,3.85 -3.12,5.43 -1.35,1.6 -2.98,2.97 -4.88,4.08 -1.92,1.12 -4.05,2 -6.43,2.62l0 0.18c1.18,0.54 2.2,1.12 3.06,1.79 0.85,0.68 1.69,1.46 2.45,2.38 0.79,0.9 1.57,1.93 2.34,3.1 0.76,1.15 1.61,2.48 2.55,4.02l13.15 21.04zm-42 -62.59l0 25.4 11.13 0c2.05,0 3.95,-0.32 5.68,-0.94 1.76,-0.61 3.25,-1.5 4.52,-2.66 1.27,-1.15 2.27,-2.57 2.98,-4.25 0.72,-1.67 1.07,-3.55 1.07,-5.63 0,-3.75 -1.2,-6.67 -3.63,-8.77 -2.42,-2.1 -5.94,-3.15 -10.52,-3.15l-11.23 0zm59.81 36.13l0 26.46 -8.2 0 0 -70.01 19.23 0c7.49,0 13.29,1.82 17.42,5.47 4.11,3.65 6.17,8.78 6.17,15.43 0,6.63 -2.29,12.07 -6.87,16.3 -4.57,4.23 -10.75,6.35 -18.52,6.35l-9.23 0zm0 -36.13l0 28.71 8.6 0c5.65,0 9.98,-1.3 12.95,-3.88 2.98,-2.58 4.47,-6.25 4.47,-10.97 0,-9.24 -5.47,-13.86 -16.4,-13.86l-9.62 0zm76.01 63.76c-9.93,0 -17.88,-3.27 -23.85,-9.82 -5.96,-6.53 -8.96,-15.04 -8.96,-25.53 0,-11.26 3.05,-20.24 9.13,-26.94 6.08,-6.7 14.38,-10.07 24.86,-10.07 9.67,0 17.45,3.27 23.35,9.77 5.92,6.51 8.87,15.03 8.87,25.54 0,11.42 -3.03,20.45 -9.08,27.1 -6.05,6.63 -14.15,9.95 -24.32,9.95zm0.58 -64.93c-7.34,0 -13.31,2.65 -17.91,7.95 -4.58,5.32 -6.88,12.28 -6.88,20.9 0,8.63 2.23,15.57 6.71,20.83 4.47,5.25 10.32,7.88 17.5,7.88 7.68,0 13.73,-2.5 18.17,-7.51 4.43,-5.02 6.63,-12.03 6.63,-21.05 0,-9.25 -2.13,-16.38 -6.43,-21.43 -4.3,-5.05 -10.24,-7.57 -17.79,-7.57z"/>
  <path class="fil0" d="M304.41 170.55l-6.5 0 -5.31 -14.05 -21.26 0 -5.01 14.05 -6.52 0 19.22 -50.13 6.09 0 19.29 50.13zm-13.74 -19.33l-7.87 -21.36c-0.25,-0.71 -0.51,-1.83 -0.76,-3.35l-0.14 0c-0.23,1.42 -0.51,2.53 -0.8,3.35l-7.81 21.36 17.38 0zm21.12 19.33l0 -50.13 13.84 0c17.66,0 26.51,8.14 26.51,24.44 0,7.73 -2.46,13.95 -7.37,18.65 -4.9,4.69 -11.47,7.04 -19.7,7.04l-13.28 0zm5.87 -44.82l0 39.51 7.48 0c6.58,0 11.68,-1.76 15.35,-5.28 3.66,-3.53 5.49,-8.51 5.49,-14.97 0,-12.84 -6.83,-19.26 -20.49,-19.26l-7.83 0zm81.6 -5.31l-18.57 50.13 -6.47 0 -18.17 -50.13 6.54 0 13.88 39.75c0.44,1.28 0.77,2.76 1.01,4.44l0.13 0c0.19,-1.4 0.58,-2.9 1.16,-4.51l14.17 -39.68 6.32 0zm26.99 50.97c-7.11,0 -12.8,-2.34 -17.07,-7.03 -4.28,-4.68 -6.42,-10.78 -6.42,-18.28 0,-8.07 2.18,-14.5 6.54,-19.3 4.35,-4.8 10.29,-7.21 17.8,-7.21 6.92,0 12.49,2.34 16.72,7 4.23,4.66 6.35,10.76 6.35,18.29 0,8.17 -2.17,14.64 -6.51,19.4 -4.33,4.75 -10.13,7.13 -17.41,7.13zm0.42 -46.49c-5.26,0 -9.53,1.89 -12.83,5.69 -3.28,3.8 -4.93,8.79 -4.93,14.96 0,6.18 1.6,11.15 4.81,14.92 3.2,3.76 7.39,5.64 12.53,5.64 5.5,0 9.84,-1.79 13.01,-5.38 3.17,-3.59 4.75,-8.61 4.75,-15.07 0,-6.62 -1.53,-11.73 -4.61,-15.35 -3.07,-3.61 -7.32,-5.41 -12.73,-5.41zm70.83 42.23c-5.03,2.84 -10.62,4.26 -16.78,4.26 -7.15,0 -12.94,-2.31 -17.35,-6.92 -4.43,-4.61 -6.64,-10.72 -6.64,-18.32 0,-7.76 2.46,-14.13 7.36,-19.11 4.91,-4.97 11.13,-7.47 18.66,-7.47 5.45,0 10.03,0.9 13.73,2.66l0 6.51c-4.04,-2.57 -8.85,-3.84 -14.4,-3.84 -5.61,0 -10.22,1.93 -13.81,5.79 -3.59,3.87 -5.38,8.88 -5.38,15.04 0,6.34 1.67,11.33 5,14.94 3.33,3.63 7.85,5.44 13.57,5.44 3.91,0 7.3,-0.78 10.16,-2.34l0 -14.05 -10.97 0 0 -5.31 16.85 0 0 22.72zm50.45 3.42l-6.5 0 -5.31 -14.05 -21.27 0 -5 14.05 -6.53 0 19.23 -50.13 6.08 0 19.3 50.13zm-13.75 -19.33l-7.86 -21.36c-0.25,-0.71 -0.51,-1.83 -0.77,-3.35l-0.14 0c-0.23,1.42 -0.5,2.53 -0.8,3.35l-7.8 21.36 17.37 0zm21.12 19.33l0 -50.13 13.85 0c17.66,0 26.5,8.14 26.5,24.44 0,7.73 -2.46,13.95 -7.36,18.65 -4.91,4.69 -11.47,7.04 -19.7,7.04l-13.29 0zm5.88 -44.82l0 39.51 7.48 0c6.57,0 11.68,-1.76 15.34,-5.28 3.67,-3.53 5.49,-8.51 5.49,-14.97 0,-12.84 -6.82,-19.26 -20.49,-19.26l-7.82 0zm64.53 45.66c-7.11,0 -12.8,-2.34 -17.08,-7.03 -4.27,-4.68 -6.42,-10.78 -6.42,-18.28 0,-8.07 2.19,-14.5 6.54,-19.3 4.36,-4.8 10.3,-7.21 17.81,-7.21 6.92,0 12.49,2.34 16.72,7 4.23,4.66 6.35,10.76 6.35,18.29 0,8.17 -2.18,14.64 -6.51,19.4 -4.33,4.75 -10.13,7.13 -17.41,7.13zm0.42 -46.49c-5.26,0 -9.54,1.89 -12.83,5.69 -3.28,3.8 -4.93,8.79 -4.93,14.96 0,6.18 1.6,11.15 4.81,14.92 3.2,3.76 7.39,5.64 12.53,5.64 5.5,0 9.84,-1.79 13.01,-5.38 3.17,-3.59 4.75,-8.61 4.75,-15.07 0,-6.62 -1.53,-11.73 -4.61,-15.35 -3.08,-3.61 -7.33,-5.41 -12.73,-5.41zm31 43.62l0 -6.92c0.8,0.71 1.76,1.33 2.85,1.89 1.11,0.56 2.28,1.04 3.5,1.42 1.23,0.38 2.46,0.68 3.69,0.89 1.24,0.21 2.39,0.31 3.42,0.31 3.62,0 6.32,-0.67 8.11,-2.01 1.77,-1.34 2.67,-3.27 2.67,-5.78 0,-1.36 -0.3,-2.53 -0.9,-3.53 -0.59,-1 -1.42,-1.92 -2.45,-2.75 -1.05,-0.83 -2.3,-1.62 -3.73,-2.38 -1.44,-0.76 -2.98,-1.55 -4.64,-2.39 -1.74,-0.88 -3.38,-1.79 -4.89,-2.7 -1.52,-0.9 -2.83,-1.91 -3.95,-3 -1.12,-1.1 -1.99,-2.34 -2.64,-3.73 -0.64,-1.38 -0.97,-3 -0.97,-4.87 0,-2.29 0.51,-4.27 1.51,-5.96 1,-1.7 2.32,-3.08 3.95,-4.18 1.63,-1.1 3.49,-1.91 5.58,-2.45 2.08,-0.53 4.21,-0.81 6.37,-0.81 4.94,0 8.55,0.6 10.82,1.79l0 6.61c-2.96,-2.05 -6.77,-3.07 -11.4,-3.07 -1.29,0 -2.57,0.13 -3.85,0.39 -1.28,0.27 -2.43,0.72 -3.43,1.31 -1,0.61 -1.81,1.4 -2.45,2.35 -0.63,0.96 -0.94,2.11 -0.94,3.5 0,1.28 0.24,2.39 0.72,3.32 0.48,0.93 1.18,1.77 2.11,2.55 0.93,0.76 2.08,1.52 3.41,2.23 1.34,0.73 2.89,1.52 4.63,2.38 1.81,0.89 3.5,1.82 5.11,2.8 1.61,0.98 3.02,2.07 4.22,3.25 1.22,1.19 2.18,2.5 2.89,3.95 0.72,1.44 1.06,3.1 1.06,4.96 0,2.47 -0.47,4.57 -1.44,6.28 -0.97,1.72 -2.28,3.11 -3.91,4.18 -1.65,1.07 -3.55,1.84 -5.68,2.32 -2.15,0.48 -4.41,0.72 -6.79,0.72 -0.79,0 -1.77,-0.06 -2.94,-0.19 -1.16,-0.14 -2.35,-0.31 -3.57,-0.56 -1.2,-0.24 -2.35,-0.55 -3.43,-0.91 -1.09,-0.36 -1.96,-0.76 -2.62,-1.21zm98.82 2.03l-6.5 0 -5.31 -14.05 -21.27 0 -5 14.05 -6.52 0 19.22 -50.13 6.09 0 19.29 50.13zm-13.74 -19.33l-7.87 -21.36c-0.25,-0.71 -0.51,-1.83 -0.76,-3.35l-0.15 0c-0.22,1.42 -0.5,2.53 -0.8,3.35l-7.8 21.36 17.38 0zm18.77 17.3l0 -6.92c0.8,0.71 1.75,1.33 2.85,1.89 1.11,0.56 2.28,1.04 3.5,1.42 1.22,0.38 2.45,0.68 3.68,0.89 1.24,0.21 2.39,0.31 3.43,0.31 3.61,0 6.31,-0.67 8.1,-2.01 1.78,-1.34 2.67,-3.27 2.67,-5.78 0,-1.36 -0.29,-2.53 -0.89,-3.53 -0.6,-1 -1.42,-1.92 -2.46,-2.75 -1.05,-0.83 -2.29,-1.62 -3.72,-2.38 -1.45,-0.76 -2.99,-1.55 -4.65,-2.39 -1.74,-0.88 -3.37,-1.79 -4.89,-2.7 -1.51,-0.9 -2.83,-1.91 -3.95,-3 -1.12,-1.1 -1.99,-2.34 -2.64,-3.73 -0.64,-1.38 -0.96,-3 -0.96,-4.87 0,-2.29 0.5,-4.27 1.5,-5.96 1,-1.7 2.33,-3.08 3.95,-4.18 1.64,-1.1 3.5,-1.91 5.59,-2.45 2.07,-0.53 4.21,-0.81 6.37,-0.81 4.94,0 8.54,0.6 10.81,1.79l0 6.61c-2.96,-2.05 -6.77,-3.07 -11.4,-3.07 -1.28,0 -2.56,0.13 -3.85,0.39 -1.28,0.27 -2.42,0.72 -3.43,1.31 -1,0.61 -1.81,1.4 -2.44,2.35 -0.63,0.96 -0.94,2.11 -0.94,3.5 0,1.28 0.23,2.39 0.71,3.32 0.48,0.93 1.18,1.77 2.11,2.55 0.93,0.76 2.08,1.52 3.42,2.23 1.33,0.73 2.88,1.52 4.63,2.38 1.8,0.89 3.49,1.82 5.1,2.8 1.62,0.98 3.02,2.07 4.23,3.25 1.22,1.19 2.17,2.5 2.89,3.95 0.71,1.44 1.06,3.1 1.06,4.96 0,2.47 -0.48,4.57 -1.45,6.28 -0.96,1.72 -2.28,3.11 -3.91,4.18 -1.65,1.07 -3.54,1.84 -5.68,2.32 -2.15,0.48 -4.4,0.72 -6.79,0.72 -0.79,0 -1.77,-0.06 -2.94,-0.19 -1.15,-0.14 -2.35,-0.31 -3.56,-0.56 -1.21,-0.24 -2.35,-0.55 -3.44,-0.91 -1.09,-0.36 -1.96,-0.76 -2.61,-1.21zm38.04 0l0 -6.92c0.8,0.71 1.75,1.33 2.85,1.89 1.11,0.56 2.28,1.04 3.5,1.42 1.23,0.38 2.46,0.68 3.69,0.89 1.24,0.21 2.38,0.31 3.42,0.31 3.62,0 6.31,-0.67 8.1,-2.01 1.78,-1.34 2.68,-3.27 2.68,-5.78 0,-1.36 -0.3,-2.53 -0.9,-3.53 -0.6,-1 -1.42,-1.92 -2.46,-2.75 -1.05,-0.83 -2.29,-1.62 -3.72,-2.38 -1.44,-0.76 -2.98,-1.55 -4.64,-2.39 -1.74,-0.88 -3.38,-1.79 -4.89,-2.7 -1.52,-0.9 -2.83,-1.91 -3.96,-3 -1.12,-1.1 -1.99,-2.34 -2.63,-3.73 -0.65,-1.38 -0.97,-3 -0.97,-4.87 0,-2.29 0.5,-4.27 1.51,-5.96 1,-1.7 2.32,-3.08 3.94,-4.18 1.64,-1.1 3.5,-1.91 5.59,-2.45 2.08,-0.53 4.21,-0.81 6.37,-0.81 4.94,0 8.55,0.6 10.81,1.79l0 6.61c-2.96,-2.05 -6.76,-3.07 -11.39,-3.07 -1.29,0 -2.57,0.13 -3.86,0.39 -1.27,0.27 -2.42,0.72 -3.42,1.31 -1,0.61 -1.82,1.4 -2.45,2.35 -0.63,0.96 -0.94,2.11 -0.94,3.5 0,1.28 0.24,2.39 0.72,3.32 0.47,0.93 1.18,1.77 2.11,2.55 0.93,0.76 2.07,1.52 3.41,2.23 1.34,0.73 2.89,1.52 4.63,2.38 1.8,0.89 3.5,1.82 5.11,2.8 1.61,0.98 3.02,2.07 4.22,3.25 1.22,1.19 2.17,2.5 2.89,3.95 0.72,1.44 1.06,3.1 1.06,4.96 0,2.47 -0.48,4.57 -1.44,6.28 -0.97,1.72 -2.28,3.11 -3.92,4.18 -1.64,1.07 -3.54,1.84 -5.68,2.32 -2.14,0.48 -4.4,0.72 -6.79,0.72 -0.78,0 -1.76,-0.06 -2.93,-0.19 -1.16,-0.14 -2.35,-0.31 -3.57,-0.56 -1.21,-0.24 -2.35,-0.55 -3.44,-0.91 -1.08,-0.36 -1.95,-0.76 -2.61,-1.21zm60.6 2.87c-7.12,0 -12.81,-2.34 -17.08,-7.03 -4.27,-4.68 -6.42,-10.78 -6.42,-18.28 0,-8.07 2.18,-14.5 6.54,-19.3 4.36,-4.8 10.3,-7.21 17.8,-7.21 6.93,0 12.5,2.34 16.72,7 4.24,4.66 6.35,10.76 6.35,18.29 0,8.17 -2.17,14.64 -6.5,19.4 -4.33,4.75 -10.13,7.13 -17.41,7.13zm0.41 -46.49c-5.26,0 -9.53,1.89 -12.82,5.69 -3.29,3.8 -4.93,8.79 -4.93,14.96 0,6.18 1.6,11.15 4.81,14.92 3.2,3.76 7.38,5.64 12.53,5.64 5.5,0 9.83,-1.79 13,-5.38 3.18,-3.59 4.75,-8.61 4.75,-15.07 0,-6.62 -1.52,-11.73 -4.6,-15.35 -3.08,-3.61 -7.33,-5.41 -12.74,-5.41zm67.48 43.55c-3.7,1.96 -8.32,2.94 -13.85,2.94 -7.13,0 -12.84,-2.29 -17.12,-6.89 -4.3,-4.59 -6.44,-10.62 -6.44,-18.08 0,-8 2.42,-14.48 7.24,-19.42 4.82,-4.96 10.94,-7.43 18.35,-7.43 4.75,0 8.69,0.7 11.82,2.07l0 6.26c-3.6,-2 -7.56,-3 -11.89,-3 -5.75,0 -10.42,1.92 -14,5.76 -3.58,3.84 -5.37,8.98 -5.37,15.42 0,6.11 1.67,10.98 5.02,14.59 3.35,3.63 7.73,5.44 13.17,5.44 5.02,0 9.39,-1.12 13.07,-3.35l0 5.69zm16.08 2.1l-5.87 0 0 -50.13 5.87 0 0 50.13zm52 0l-6.51 0 -5.31 -14.05 -21.26 0 -5 14.05 -6.53 0 19.22 -50.13 6.09 0 19.3 50.13zm-13.75 -19.33l-7.87 -21.36c-0.25,-0.71 -0.51,-1.83 -0.76,-3.35l-0.14 0c-0.23,1.42 -0.5,2.53 -0.8,3.35l-7.81 21.36 17.38 0zm21.12 19.33l0 -50.13 13.84 0c17.66,0 26.51,8.14 26.51,24.44 0,7.73 -2.46,13.95 -7.37,18.65 -4.9,4.69 -11.46,7.04 -19.7,7.04l-13.28 0zm5.87 -44.82l0 39.51 7.48 0c6.58,0 11.69,-1.76 15.35,-5.28 3.66,-3.53 5.49,-8.51 5.49,-14.97 0,-12.84 -6.83,-19.26 -20.49,-19.26l-7.83 0zm64.54 45.66c-7.11,0 -12.81,-2.34 -17.08,-7.03 -4.27,-4.68 -6.42,-10.78 -6.42,-18.28 0,-8.07 2.19,-14.5 6.54,-19.3 4.36,-4.8 10.3,-7.21 17.81,-7.21 6.92,0 12.49,2.34 16.71,7 4.24,4.66 6.35,10.76 6.35,18.29 0,8.17 -2.17,14.64 -6.5,19.4 -4.33,4.75 -10.13,7.13 -17.41,7.13zm0.42 -46.49c-5.27,0 -9.54,1.89 -12.83,5.69 -3.28,3.8 -4.93,8.79 -4.93,14.96 0,6.18 1.6,11.15 4.81,14.92 3.2,3.76 7.38,5.64 12.53,5.64 5.5,0 9.83,-1.79 13.01,-5.38 3.17,-3.59 4.74,-8.61 4.74,-15.07 0,-6.62 -1.52,-11.73 -4.6,-15.35 -3.08,-3.61 -7.33,-5.41 -12.73,-5.41zm31 43.62l0 -6.92c0.8,0.71 1.75,1.33 2.85,1.89 1.11,0.56 2.28,1.04 3.5,1.42 1.23,0.38 2.46,0.68 3.69,0.89 1.24,0.21 2.38,0.31 3.42,0.31 3.62,0 6.31,-0.67 8.1,-2.01 1.78,-1.34 2.68,-3.27 2.68,-5.78 0,-1.36 -0.3,-2.53 -0.9,-3.53 -0.6,-1 -1.42,-1.92 -2.46,-2.75 -1.05,-0.83 -2.29,-1.62 -3.72,-2.38 -1.44,-0.76 -2.98,-1.55 -4.64,-2.39 -1.75,-0.88 -3.38,-1.79 -4.9,-2.7 -1.51,-0.9 -2.82,-1.91 -3.95,-3 -1.12,-1.1 -1.99,-2.34 -2.63,-3.73 -0.65,-1.38 -0.97,-3 -0.97,-4.87 0,-2.29 0.5,-4.27 1.5,-5.96 1.01,-1.7 2.33,-3.08 3.95,-4.18 1.64,-1.1 3.5,-1.91 5.59,-2.45 2.07,-0.53 4.21,-0.81 6.37,-0.81 4.94,0 8.55,0.6 10.81,1.79l0 6.61c-2.96,-2.05 -6.76,-3.07 -11.39,-3.07 -1.29,0 -2.57,0.13 -3.86,0.39 -1.27,0.27 -2.42,0.72 -3.42,1.31 -1.01,0.61 -1.82,1.4 -2.45,2.35 -0.63,0.96 -0.94,2.11 -0.94,3.5 0,1.28 0.24,2.39 0.71,3.32 0.48,0.93 1.19,1.77 2.12,2.55 0.93,0.76 2.07,1.52 3.41,2.23 1.34,0.73 2.89,1.52 4.63,2.38 1.8,0.89 3.5,1.82 5.11,2.8 1.61,0.98 3.02,2.07 4.22,3.25 1.22,1.19 2.17,2.5 2.89,3.95 0.72,1.44 1.06,3.1 1.06,4.96 0,2.47 -0.48,4.57 -1.44,6.28 -0.97,1.72 -2.28,3.11 -3.92,4.18 -1.64,1.07 -3.54,1.84 -5.68,2.32 -2.14,0.48 -4.4,0.72 -6.79,0.72 -0.78,0 -1.76,-0.06 -2.93,-0.19 -1.16,-0.14 -2.35,-0.31 -3.57,-0.56 -1.21,-0.24 -2.35,-0.55 -3.44,-0.91 -1.08,-0.36 -1.95,-0.76 -2.61,-1.21z"/>
 </g>
</svg>
